<svg width="202" height="17" viewBox="0 0 202 17" fill="none" xmlns="http://www.w3.org/2000/svg">
<path d="M0.785156 12.9999V1.09986H5.80016C7.06949 1.09986 8.18582 1.34919 9.14916 1.84786C10.1238 2.34653 10.8775 3.04353 11.4102 3.93886C11.9542 4.83419 12.2262 5.87119 12.2262 7.04986C12.2262 8.22853 11.9542 9.26553 11.4102 10.1609C10.8775 11.0562 10.1238 11.7532 9.14916 12.2519C8.18582 12.7505 7.06949 12.9999 5.80016 12.9999H0.785156ZM2.48516 11.5209H5.69816C6.68416 11.5209 7.53416 11.3339 8.24816 10.9599C8.97349 10.5859 9.53449 10.0645 9.93116 9.39586C10.3278 8.71586 10.5262 7.93386 10.5262 7.04986C10.5262 6.15453 10.3278 5.37253 9.93116 4.70386C9.53449 4.03519 8.97349 3.51386 8.24816 3.13986C7.53416 2.76586 6.68416 2.57886 5.69816 2.57886H2.48516V11.5209Z" fill="#515C8A"/>
<path d="M18.7741 13.1019C17.8107 13.1019 16.9607 12.9035 16.2241 12.5069C15.4987 12.1102 14.9321 11.5662 14.5241 10.8749C14.1274 10.1835 13.9291 9.39019 13.9291 8.49486C13.9291 7.59953 14.1217 6.80619 14.5071 6.11486C14.9037 5.42353 15.4421 4.88519 16.1221 4.49986C16.8134 4.10319 17.5897 3.90486 18.4511 3.90486C19.3237 3.90486 20.0944 4.09753 20.7631 4.48286C21.4317 4.86819 21.9531 5.41219 22.3271 6.11486C22.7124 6.80619 22.9051 7.61653 22.9051 8.54586C22.9051 8.61386 22.8994 8.69319 22.8881 8.78386C22.8881 8.87453 22.8824 8.95953 22.8711 9.03886H15.2041V7.86586H22.0211L21.3581 8.27386C21.3694 7.69586 21.2504 7.18019 21.0011 6.72686C20.7517 6.27353 20.4061 5.92219 19.9641 5.67286C19.5334 5.41219 19.0291 5.28186 18.4511 5.28186C17.8844 5.28186 17.3801 5.41219 16.9381 5.67286C16.4961 5.92219 16.1504 6.27919 15.9011 6.74386C15.6517 7.19719 15.5271 7.71853 15.5271 8.30786V8.57986C15.5271 9.18053 15.6631 9.71886 15.9351 10.1949C16.2184 10.6595 16.6094 11.0222 17.1081 11.2829C17.6067 11.5435 18.1791 11.6739 18.8251 11.6739C19.3577 11.6739 19.8394 11.5832 20.2701 11.4019C20.7121 11.2205 21.0974 10.9485 21.4261 10.5859L22.3271 11.6399C21.9191 12.1159 21.4091 12.4785 20.7971 12.7279C20.1964 12.9772 19.5221 13.1019 18.7741 13.1019Z" fill="#515C8A"/>
<path d="M27.9253 13.1019C27.1773 13.1019 26.4633 12.9999 25.7833 12.7959C25.1146 12.5919 24.5876 12.3425 24.2023 12.0479L24.8823 10.7559C25.2676 11.0165 25.7436 11.2375 26.3103 11.4189C26.8769 11.6002 27.4549 11.6909 28.0443 11.6909C28.8036 11.6909 29.3476 11.5832 29.6763 11.3679C30.0163 11.1525 30.1863 10.8522 30.1863 10.4669C30.1863 10.1835 30.0843 9.96253 29.8803 9.80386C29.6763 9.64519 29.4043 9.52619 29.0643 9.44686C28.7356 9.36753 28.3673 9.29953 27.9593 9.24286C27.5513 9.17486 27.1433 9.09553 26.7353 9.00486C26.3273 8.90286 25.9533 8.76686 25.6133 8.59686C25.2733 8.41553 25.0013 8.17186 24.7973 7.86586C24.5933 7.54853 24.4913 7.12919 24.4913 6.60786C24.4913 6.06386 24.6443 5.58786 24.9503 5.17986C25.2563 4.77186 25.6869 4.46019 26.2423 4.24486C26.8089 4.01819 27.4776 3.90486 28.2483 3.90486C28.8376 3.90486 29.4326 3.97853 30.0333 4.12586C30.6453 4.26186 31.1439 4.46019 31.5293 4.72086L30.8323 6.01286C30.4243 5.74086 29.9993 5.55386 29.5573 5.45186C29.1153 5.34986 28.6733 5.29886 28.2313 5.29886C27.5173 5.29886 26.9846 5.41786 26.6333 5.65586C26.2819 5.88253 26.1063 6.17719 26.1063 6.53986C26.1063 6.84586 26.2083 7.08386 26.4123 7.25386C26.6276 7.41253 26.8996 7.53719 27.2283 7.62786C27.5683 7.71853 27.9423 7.79786 28.3503 7.86586C28.7583 7.92253 29.1663 8.00186 29.5743 8.10386C29.9823 8.19453 30.3506 8.32486 30.6793 8.49486C31.0193 8.66486 31.2913 8.90286 31.4953 9.20886C31.7106 9.51486 31.8183 9.92286 31.8183 10.4329C31.8183 10.9769 31.6596 11.4472 31.3423 11.8439C31.0249 12.2405 30.5773 12.5522 29.9993 12.7789C29.4213 12.9942 28.7299 13.1019 27.9253 13.1019Z" fill="#515C8A"/>
<path d="M34.0279 12.9999V3.98986H35.6599V12.9999H34.0279ZM34.8439 2.25586C34.5265 2.25586 34.2602 2.15386 34.0449 1.94986C33.8409 1.74586 33.7389 1.49653 33.7389 1.20186C33.7389 0.89586 33.8409 0.64086 34.0449 0.436859C34.2602 0.232859 34.5265 0.130859 34.8439 0.130859C35.1612 0.130859 35.4219 0.232859 35.6259 0.436859C35.8412 0.629526 35.9489 0.873192 35.9489 1.16786C35.9489 1.47386 35.8469 1.73453 35.6429 1.94986C35.4389 2.15386 35.1725 2.25586 34.8439 2.25586Z" fill="#515C8A"/>
<path d="M42.8899 16.3999C42.0626 16.3999 41.2579 16.2809 40.4759 16.0429C39.7052 15.8162 39.0762 15.4875 38.5889 15.0569L39.3709 13.7989C39.7902 14.1615 40.3059 14.4449 40.9179 14.6489C41.5299 14.8642 42.1702 14.9719 42.8389 14.9719C43.9042 14.9719 44.6862 14.7225 45.1849 14.2239C45.6836 13.7252 45.9329 12.9659 45.9329 11.9459V10.0419L46.1029 8.25686L46.0179 6.45486V3.98986H47.5649V11.7759C47.5649 13.3625 47.1682 14.5299 46.3749 15.2779C45.5816 16.0259 44.4199 16.3999 42.8899 16.3999ZM42.6859 12.6259C41.8132 12.6259 41.0312 12.4445 40.3399 12.0819C39.6599 11.7079 39.1159 11.1922 38.7079 10.5349C38.3112 9.87753 38.1129 9.11819 38.1129 8.25686C38.1129 7.38419 38.3112 6.62486 38.7079 5.97886C39.1159 5.32153 39.6599 4.81153 40.3399 4.44886C41.0312 4.08619 41.8132 3.90486 42.6859 3.90486C43.4566 3.90486 44.1592 4.06353 44.7939 4.38086C45.4286 4.68686 45.9329 5.16286 46.3069 5.80886C46.6922 6.45486 46.8849 7.27086 46.8849 8.25686C46.8849 9.23153 46.6922 10.0419 46.3069 10.6879C45.9329 11.3339 45.4286 11.8212 44.7939 12.1499C44.1592 12.4672 43.4566 12.6259 42.6859 12.6259ZM42.8729 11.1979C43.4736 11.1979 44.0062 11.0732 44.4709 10.8239C44.9356 10.5745 45.2982 10.2289 45.5589 9.78686C45.8309 9.34486 45.9669 8.83486 45.9669 8.25686C45.9669 7.67886 45.8309 7.16886 45.5589 6.72686C45.2982 6.28486 44.9356 5.94486 44.4709 5.70686C44.0062 5.45753 43.4736 5.33286 42.8729 5.33286C42.2722 5.33286 41.7339 5.45753 41.2579 5.70686C40.7932 5.94486 40.4249 6.28486 40.1529 6.72686C39.8922 7.16886 39.7619 7.67886 39.7619 8.25686C39.7619 8.83486 39.8922 9.34486 40.1529 9.78686C40.4249 10.2289 40.7932 10.5745 41.2579 10.8239C41.7339 11.0732 42.2722 11.1979 42.8729 11.1979Z" fill="#515C8A"/>
<path d="M55.6642 3.90486C56.4009 3.90486 57.0469 4.04653 57.6022 4.32986C58.1689 4.61319 58.6109 5.04386 58.9282 5.62186C59.2455 6.19986 59.4042 6.93086 59.4042 7.81486V12.9999H57.7722V8.00186C57.7722 7.12919 57.5569 6.47186 57.1262 6.02986C56.7069 5.58786 56.1119 5.36686 55.3412 5.36686C54.7632 5.36686 54.2589 5.48019 53.8282 5.70686C53.3975 5.93353 53.0632 6.26786 52.8252 6.70986C52.5985 7.15186 52.4852 7.70153 52.4852 8.35886V12.9999H50.8532V3.98986H52.4172V6.42086L52.1622 5.77486C52.4569 5.18553 52.9102 4.72653 53.5222 4.39786C54.1342 4.06919 54.8482 3.90486 55.6642 3.90486Z" fill="#515C8A"/>
<path d="M70.7129 13.1359C69.9083 13.1359 69.1943 13.0055 68.5709 12.7449C67.9476 12.4842 67.4546 12.1215 67.0919 11.6569C66.7293 11.1922 66.5479 10.6539 66.5479 10.0419C66.5479 9.50919 66.6669 9.02186 66.9049 8.57986C67.1429 8.13786 67.5226 7.71286 68.0439 7.30486C68.5653 6.88553 69.2509 6.45486 70.1009 6.01286C70.7923 5.65019 71.3306 5.33286 71.7159 5.06086C72.1126 4.78886 72.3903 4.53386 72.5489 4.29586C72.7189 4.04653 72.8039 3.78019 72.8039 3.49686C72.8039 3.11153 72.6679 2.79986 72.3959 2.56186C72.1239 2.31253 71.7329 2.18786 71.2229 2.18786C70.6903 2.18786 70.2709 2.32386 69.9649 2.59586C69.6703 2.85653 69.5229 3.20219 69.5229 3.63286C69.5229 3.84819 69.5569 4.05786 69.6249 4.26186C69.7043 4.45453 69.8403 4.67553 70.0329 4.92486C70.2369 5.16286 70.5259 5.46886 70.8999 5.84286L77.1899 12.0989L76.2719 13.1869L69.5909 6.53986C69.1943 6.14319 68.8826 5.79186 68.6559 5.48586C68.4293 5.16853 68.2649 4.86253 68.1629 4.56786C68.0609 4.27319 68.0099 3.97286 68.0099 3.66686C68.0099 3.13419 68.1403 2.66953 68.4009 2.27286C68.6729 1.86486 69.0469 1.55319 69.5229 1.33786C70.0103 1.11119 70.5769 0.997859 71.2229 0.997859C71.8236 0.997859 72.3449 1.09986 72.7869 1.30386C73.2289 1.49653 73.5689 1.77986 73.8069 2.15386C74.0563 2.51653 74.1809 2.95853 74.1809 3.47986C74.1809 3.93319 74.0676 4.35253 73.8409 4.73786C73.6256 5.12319 73.2743 5.49719 72.7869 5.85986C72.2996 6.22253 71.6423 6.61353 70.8149 7.03286C70.1349 7.38419 69.6023 7.71286 69.2169 8.01886C68.8316 8.31353 68.5539 8.60819 68.3839 8.90286C68.2253 9.19753 68.1459 9.52053 68.1459 9.87186C68.1459 10.2459 68.2536 10.5802 68.4689 10.8749C68.6956 11.1582 69.0073 11.3792 69.4039 11.5379C69.8119 11.6965 70.2823 11.7759 70.8149 11.7759C71.5743 11.7759 72.2599 11.6115 72.8719 11.2829C73.4839 10.9542 73.9939 10.4612 74.4019 9.80386C74.8213 9.14653 75.1273 8.33053 75.3199 7.35586L76.6289 7.78086C76.4023 8.92553 76.0113 9.89453 75.4559 10.6879C74.9119 11.4812 74.2376 12.0875 73.4329 12.5069C72.6283 12.9262 71.7216 13.1359 70.7129 13.1359Z" fill="#515C8A"/>
<path d="M84.1277 12.9999V1.09986H89.1427C90.412 1.09986 91.5283 1.34919 92.4917 1.84786C93.4663 2.34653 94.22 3.04353 94.7527 3.93886C95.2967 4.83419 95.5687 5.87119 95.5687 7.04986C95.5687 8.22853 95.2967 9.26553 94.7527 10.1609C94.22 11.0562 93.4663 11.7532 92.4917 12.2519C91.5283 12.7505 90.412 12.9999 89.1427 12.9999H84.1277ZM85.8277 11.5209H89.0407C90.0267 11.5209 90.8767 11.3339 91.5907 10.9599C92.316 10.5859 92.877 10.0645 93.2737 9.39586C93.6703 8.71586 93.8687 7.93386 93.8687 7.04986C93.8687 6.15453 93.6703 5.37253 93.2737 4.70386C92.877 4.03519 92.316 3.51386 91.5907 3.13986C90.8767 2.76586 90.0267 2.57886 89.0407 2.57886H85.8277V11.5209Z" fill="#515C8A"/>
<path d="M102.117 13.1019C101.153 13.1019 100.303 12.9035 99.5666 12.5069C98.8412 12.1102 98.2746 11.5662 97.8666 10.8749C97.4699 10.1835 97.2716 9.39019 97.2716 8.49486C97.2716 7.59953 97.4642 6.80619 97.8496 6.11486C98.2462 5.42353 98.7846 4.88519 99.4646 4.49986C100.156 4.10319 100.932 3.90486 101.794 3.90486C102.666 3.90486 103.437 4.09753 104.106 4.48286C104.774 4.86819 105.296 5.41219 105.67 6.11486C106.055 6.80619 106.248 7.61653 106.248 8.54586C106.248 8.61386 106.242 8.69319 106.231 8.78386C106.231 8.87453 106.225 8.95953 106.214 9.03886H98.5466V7.86586H105.364L104.701 8.27386C104.712 7.69586 104.593 7.18019 104.344 6.72686C104.094 6.27353 103.749 5.92219 103.307 5.67286C102.876 5.41219 102.372 5.28186 101.794 5.28186C101.227 5.28186 100.723 5.41219 100.281 5.67286C99.8386 5.92219 99.4929 6.27919 99.2436 6.74386C98.9942 7.19719 98.8696 7.71853 98.8696 8.30786V8.57986C98.8696 9.18053 99.0056 9.71886 99.2776 10.1949C99.5609 10.6595 99.9519 11.0222 100.451 11.2829C100.949 11.5435 101.522 11.6739 102.168 11.6739C102.7 11.6739 103.182 11.5832 103.613 11.4019C104.055 11.2205 104.44 10.9485 104.769 10.5859L105.67 11.6399C105.262 12.1159 104.752 12.4785 104.14 12.7279C103.539 12.9772 102.865 13.1019 102.117 13.1019Z" fill="#515C8A"/>
<path d="M110.881 12.9999L106.937 3.98986H108.637L112.139 12.1499H111.323L114.893 3.98986H116.491L112.547 12.9999H110.881Z" fill="#515C8A"/>
<path d="M121.947 13.1019C120.983 13.1019 120.133 12.9035 119.397 12.5069C118.671 12.1102 118.105 11.5662 117.697 10.8749C117.3 10.1835 117.102 9.39019 117.102 8.49486C117.102 7.59953 117.294 6.80619 117.68 6.11486C118.076 5.42353 118.615 4.88519 119.295 4.49986C119.986 4.10319 120.762 3.90486 121.624 3.90486C122.496 3.90486 123.267 4.09753 123.936 4.48286C124.604 4.86819 125.126 5.41219 125.5 6.11486C125.885 6.80619 126.078 7.61653 126.078 8.54586C126.078 8.61386 126.072 8.69319 126.061 8.78386C126.061 8.87453 126.055 8.95953 126.044 9.03886H118.377V7.86586H125.194L124.531 8.27386C124.542 7.69586 124.423 7.18019 124.174 6.72686C123.924 6.27353 123.579 5.92219 123.137 5.67286C122.706 5.41219 122.202 5.28186 121.624 5.28186C121.057 5.28186 120.553 5.41219 120.111 5.67286C119.669 5.92219 119.323 6.27919 119.074 6.74386C118.824 7.19719 118.7 7.71853 118.7 8.30786V8.57986C118.7 9.18053 118.836 9.71886 119.108 10.1949C119.391 10.6595 119.782 11.0222 120.281 11.2829C120.779 11.5435 121.352 11.6739 121.998 11.6739C122.53 11.6739 123.012 11.5832 123.443 11.4019C123.885 11.2205 124.27 10.9485 124.599 10.5859L125.5 11.6399C125.092 12.1159 124.582 12.4785 123.97 12.7279C123.369 12.9772 122.695 13.1019 121.947 13.1019Z" fill="#515C8A"/>
<path d="M128.514 12.9999V0.385859H130.146V12.9999H128.514Z" fill="#515C8A"/>
<path d="M137.291 13.1019C136.384 13.1019 135.58 12.9035 134.877 12.5069C134.174 12.1102 133.619 11.5662 133.211 10.8749C132.803 10.1722 132.599 9.37886 132.599 8.49486C132.599 7.59953 132.803 6.80619 133.211 6.11486C133.619 5.42353 134.174 4.88519 134.877 4.49986C135.58 4.10319 136.384 3.90486 137.291 3.90486C138.186 3.90486 138.985 4.10319 139.688 4.49986C140.402 4.88519 140.957 5.42353 141.354 6.11486C141.762 6.79486 141.966 7.58819 141.966 8.49486C141.966 9.39019 141.762 10.1835 141.354 10.8749C140.957 11.5662 140.402 12.1102 139.688 12.5069C138.985 12.9035 138.186 13.1019 137.291 13.1019ZM137.291 11.6739C137.869 11.6739 138.385 11.5435 138.838 11.2829C139.303 11.0222 139.665 10.6539 139.926 10.1779C140.187 9.69053 140.317 9.12953 140.317 8.49486C140.317 7.84886 140.187 7.29353 139.926 6.82886C139.665 6.35286 139.303 5.98453 138.838 5.72386C138.385 5.46319 137.869 5.33286 137.291 5.33286C136.713 5.33286 136.197 5.46319 135.744 5.72386C135.291 5.98453 134.928 6.35286 134.656 6.82886C134.384 7.29353 134.248 7.84886 134.248 8.49486C134.248 9.12953 134.384 9.69053 134.656 10.1779C134.928 10.6539 135.291 11.0222 135.744 11.2829C136.197 11.5435 136.713 11.6739 137.291 11.6739Z" fill="#515C8A"/>
<path d="M149.17 13.1019C148.422 13.1019 147.736 12.9319 147.113 12.5919C146.501 12.2405 146.008 11.7249 145.634 11.0449C145.271 10.3649 145.09 9.51486 145.09 8.49486C145.09 7.47486 145.266 6.62486 145.617 5.94486C145.98 5.26486 146.467 4.75486 147.079 4.41486C147.702 4.07486 148.399 3.90486 149.17 3.90486C150.054 3.90486 150.836 4.09753 151.516 4.48286C152.196 4.86819 152.734 5.40653 153.131 6.09786C153.528 6.77786 153.726 7.57686 153.726 8.49486C153.726 9.41286 153.528 10.2175 153.131 10.9089C152.734 11.6002 152.196 12.1385 151.516 12.5239C150.836 12.9092 150.054 13.1019 149.17 13.1019ZM144.393 16.2979V3.98986H145.957V6.42086L145.855 8.51186L146.025 10.6029V16.2979H144.393ZM149.034 11.6739C149.612 11.6739 150.128 11.5435 150.581 11.2829C151.046 11.0222 151.408 10.6539 151.669 10.1779C151.941 9.69053 152.077 9.12953 152.077 8.49486C152.077 7.84886 151.941 7.29353 151.669 6.82886C151.408 6.35286 151.046 5.98453 150.581 5.72386C150.128 5.46319 149.612 5.33286 149.034 5.33286C148.467 5.33286 147.952 5.46319 147.487 5.72386C147.034 5.98453 146.671 6.35286 146.399 6.82886C146.138 7.29353 146.008 7.84886 146.008 8.49486C146.008 9.12953 146.138 9.69053 146.399 10.1779C146.671 10.6539 147.034 11.0222 147.487 11.2829C147.952 11.5435 148.467 11.6739 149.034 11.6739Z" fill="#515C8A"/>
<path d="M167.422 3.90486C168.147 3.90486 168.788 4.04653 169.343 4.32986C169.898 4.61319 170.329 5.04386 170.635 5.62186C170.952 6.19986 171.111 6.93086 171.111 7.81486V12.9999H169.479V8.00186C169.479 7.12919 169.275 6.47186 168.867 6.02986C168.459 5.58786 167.887 5.36686 167.15 5.36686C166.606 5.36686 166.13 5.48019 165.722 5.70686C165.314 5.93353 164.997 6.26786 164.77 6.70986C164.555 7.15186 164.447 7.70153 164.447 8.35886V12.9999H162.815V8.00186C162.815 7.12919 162.611 6.47186 162.203 6.02986C161.806 5.58786 161.234 5.36686 160.486 5.36686C159.953 5.36686 159.483 5.48019 159.075 5.70686C158.667 5.93353 158.35 6.26786 158.123 6.70986C157.896 7.15186 157.783 7.70153 157.783 8.35886V12.9999H156.151V3.98986H157.715V6.38686L157.46 5.77486C157.743 5.18553 158.18 4.72653 158.769 4.39786C159.358 4.06919 160.044 3.90486 160.826 3.90486C161.687 3.90486 162.43 4.12019 163.053 4.55086C163.676 4.97019 164.084 5.61053 164.277 6.47186L163.614 6.19986C163.886 5.50853 164.362 4.95319 165.042 4.53386C165.722 4.11453 166.515 3.90486 167.422 3.90486Z" fill="#515C8A"/>
<path d="M178.296 13.1019C177.333 13.1019 176.482 12.9035 175.746 12.5069C175.021 12.1102 174.454 11.5662 174.046 10.8749C173.649 10.1835 173.451 9.39019 173.451 8.49486C173.451 7.59953 173.644 6.80619 174.029 6.11486C174.426 5.42353 174.964 4.88519 175.644 4.49986C176.335 4.10319 177.112 3.90486 177.973 3.90486C178.846 3.90486 179.616 4.09753 180.285 4.48286C180.954 4.86819 181.475 5.41219 181.849 6.11486C182.234 6.80619 182.427 7.61653 182.427 8.54586C182.427 8.61386 182.421 8.69319 182.41 8.78386C182.41 8.87453 182.404 8.95953 182.393 9.03886H174.726V7.86586H181.543L180.88 8.27386C180.891 7.69586 180.772 7.18019 180.523 6.72686C180.274 6.27353 179.928 5.92219 179.486 5.67286C179.055 5.41219 178.551 5.28186 177.973 5.28186C177.406 5.28186 176.902 5.41219 176.46 5.67286C176.018 5.92219 175.672 6.27919 175.423 6.74386C175.174 7.19719 175.049 7.71853 175.049 8.30786V8.57986C175.049 9.18053 175.185 9.71886 175.457 10.1949C175.74 10.6595 176.131 11.0222 176.63 11.2829C177.129 11.5435 177.701 11.6739 178.347 11.6739C178.88 11.6739 179.361 11.5832 179.792 11.4019C180.234 11.2205 180.619 10.9485 180.948 10.5859L181.849 11.6399C181.441 12.1159 180.931 12.4785 180.319 12.7279C179.718 12.9772 179.044 13.1019 178.296 13.1019Z" fill="#515C8A"/>
<path d="M189.674 3.90486C190.411 3.90486 191.057 4.04653 191.612 4.32986C192.179 4.61319 192.621 5.04386 192.938 5.62186C193.255 6.19986 193.414 6.93086 193.414 7.81486V12.9999H191.782V8.00186C191.782 7.12919 191.567 6.47186 191.136 6.02986C190.717 5.58786 190.122 5.36686 189.351 5.36686C188.773 5.36686 188.269 5.48019 187.838 5.70686C187.407 5.93353 187.073 6.26786 186.835 6.70986C186.608 7.15186 186.495 7.70153 186.495 8.35886V12.9999H184.863V3.98986H186.427V6.42086L186.172 5.77486C186.467 5.18553 186.92 4.72653 187.532 4.39786C188.144 4.06919 188.858 3.90486 189.674 3.90486Z" fill="#515C8A"/>
<path d="M199.698 13.1019C198.792 13.1019 198.089 12.8582 197.59 12.3709C197.092 11.8835 196.842 11.1865 196.842 10.2799V2.01786H198.474V10.2119C198.474 10.6992 198.593 11.0732 198.831 11.3339C199.081 11.5945 199.432 11.7249 199.885 11.7249C200.395 11.7249 200.82 11.5832 201.16 11.2999L201.67 12.4729C201.421 12.6882 201.121 12.8469 200.769 12.9489C200.429 13.0509 200.072 13.1019 199.698 13.1019ZM195.312 5.33286V3.98986H201.058V5.33286H195.312Z" fill="#515C8A"/>
</svg>
