<svg width="488" height="256" viewBox="0 0 488 256" fill="none" xmlns="http://www.w3.org/2000/svg">
<path d="M221.582 135.501L186.101 155.981" stroke="#999999" stroke-miterlimit="1.5" stroke-linecap="round" stroke-linejoin="round"/>
<path d="M47.7588 141.645L145.32 70.9889L242.882 29.0049L278.364 49.4849" stroke="#222222" stroke-miterlimit="1.5" stroke-linecap="round" stroke-linejoin="round"/>
<path d="M180.673 91.4179L145.319 71.0146" stroke="#222222" stroke-miterlimit="1.5" stroke-linecap="round" stroke-linejoin="round"/>
<path d="M290.753 109.9V118.092" stroke="#0055CB" stroke-miterlimit="1.5" stroke-linecap="round" stroke-linejoin="round"/>
<path d="M278.21 49.4336L180.649 91.4176L83.0869 162.074" stroke="#222222" stroke-miterlimit="1.5" stroke-linecap="round" stroke-linejoin="round"/>
<path d="M47.7588 203.085V141.645L83.2404 162.125" stroke="#222222" stroke-miterlimit="1.5" stroke-linecap="round" stroke-linejoin="round"/>
<path d="M95.6553 230.733L152.41 197.965" stroke="#222222" stroke-miterlimit="1.5" stroke-linecap="round" stroke-linejoin="round"/>
<path d="M232.206 151.885L290.728 118.093" stroke="#222222" stroke-miterlimit="1.5" stroke-linecap="round" stroke-linejoin="round"/>
<path d="M235.765 95.5649V123.315L264.206 106.88V79.1553" stroke="#999999" stroke-miterlimit="1.5" stroke-linecap="round" stroke-linejoin="round"/>
<path d="M235.765 117.171L264.206 100.736" stroke="#999999" stroke-miterlimit="1.5" stroke-linecap="round" stroke-linejoin="round"/>
<path d="M235.765 111.027L264.206 94.5923" stroke="#999999" stroke-miterlimit="1.5" stroke-linecap="round" stroke-linejoin="round"/>
<path d="M235.765 104.883L264.206 88.4482" stroke="#999999" stroke-miterlimit="1.5" stroke-linecap="round" stroke-linejoin="round"/>
<path d="M235.765 98.7395L264.155 82.3555" stroke="#999999" stroke-miterlimit="1.5" stroke-linecap="round" stroke-linejoin="round"/>
<path d="M269.454 107.853L232.206 129.357" stroke="#222222" stroke-miterlimit="1.5" stroke-linecap="round" stroke-linejoin="round"/>
<path d="M278.337 99.1489V88.3969V49.4849" stroke="#222222" stroke-miterlimit="1.5" stroke-linecap="round" stroke-linejoin="round"/>
<path d="M232.206 129.357V90.4448" stroke="#222222" stroke-miterlimit="1.5" stroke-linecap="round" stroke-linejoin="round"/>
<path d="M249.076 84.8128L235.764 92.4928L232.206 90.4448L267.688 69.9648L271.246 72.0128L249.076 84.8128Z" stroke="#222222" stroke-miterlimit="1.5" stroke-linecap="round" stroke-linejoin="round"/>
<path d="M235.764 92.4927L233.998 96.5887L232.231 95.5647" stroke="#222222" stroke-miterlimit="1.5" stroke-linecap="round" stroke-linejoin="round"/>
<path d="M233.999 96.5886L269.481 76.1086L271.375 72.0894" stroke="#222222" stroke-miterlimit="1.5" stroke-linecap="round" stroke-linejoin="round"/>
<path d="M267.688 108.877V77.1328" stroke="#222222" stroke-miterlimit="1.5" stroke-linecap="round" stroke-linejoin="round"/>
<path d="M189.661 122.214V134.502L218.461 117.862V105.574" stroke="#999999" stroke-miterlimit="1.5" stroke-linecap="round" stroke-linejoin="round"/>
<path d="M189.661 128.333L218.461 111.693" stroke="#999999" stroke-miterlimit="1.5" stroke-linecap="round" stroke-linejoin="round"/>
<path d="M187.894 123.238L218.05 105.83" stroke="#999999" stroke-miterlimit="1.5" stroke-linecap="round" stroke-linejoin="round"/>
<path d="M221.581 135.501L212.724 130.381" stroke="#999999" stroke-miterlimit="1.5" stroke-linecap="round" stroke-linejoin="round"/>
<path d="M221.583 135.5L232.233 129.356" stroke="#222222" stroke-miterlimit="1.5" stroke-linecap="round" stroke-linejoin="round"/>
<path d="M202.946 111.437L189.634 119.117L186.075 117.069L221.557 96.5889L225.115 98.6369L202.946 111.437Z" stroke="#222222" stroke-miterlimit="1.5" stroke-linecap="round" stroke-linejoin="round"/>
<path d="M189.659 119.117L187.892 123.213L186.126 122.189" stroke="#222222" stroke-miterlimit="1.5" stroke-linecap="round" stroke-linejoin="round"/>
<path d="M187.866 123.213L223.348 102.733L225.242 98.7139" stroke="#222222" stroke-miterlimit="1.5" stroke-linecap="round" stroke-linejoin="round"/>
<path d="M186.101 139.596L221.582 119.116" stroke="#222222" stroke-miterlimit="1.5" stroke-linecap="round" stroke-linejoin="round"/>
<path d="M186.101 155.981V117.376" stroke="#222222" stroke-miterlimit="1.5" stroke-linecap="round" stroke-linejoin="round"/>
<path d="M202.997 134.962L205.659 136.498L212.751 132.402" stroke="#222222" stroke-miterlimit="1.5" stroke-linecap="round" stroke-linejoin="round"/>
<path d="M202.997 129.843L205.659 131.379L212.751 127.283L210.088 125.747" stroke="#222222" stroke-miterlimit="1.5" stroke-linecap="round" stroke-linejoin="round"/>
<path d="M212.751 132.403V127.283" stroke="#222222" stroke-miterlimit="1.5" stroke-linecap="round" stroke-linejoin="round"/>
<path d="M205.661 131.378V136.498" stroke="#222222" stroke-miterlimit="1.5" stroke-linecap="round" stroke-linejoin="round"/>
<path d="M188.765 138.06L195.856 142.156L202.947 138.06" stroke="#222222" stroke-miterlimit="1.5" stroke-linecap="round" stroke-linejoin="round"/>
<path d="M193.192 135.5L195.855 137.036L202.946 132.94L200.284 131.404" stroke="#222222" stroke-miterlimit="1.5" stroke-linecap="round" stroke-linejoin="round"/>
<path d="M199.413 134.988L196.751 133.452" stroke="#222222" stroke-miterlimit="1.5" stroke-linecap="round" stroke-linejoin="round"/>
<path d="M202.946 138.06V132.94" stroke="#222222" stroke-miterlimit="1.5" stroke-linecap="round" stroke-linejoin="round"/>
<path d="M195.856 137.036V142.156" stroke="#222222" stroke-miterlimit="1.5" stroke-linecap="round" stroke-linejoin="round"/>
<path d="M175.451 162.124L146.19 179.02" stroke="#999999" stroke-miterlimit="1.5" stroke-linecap="round" stroke-linejoin="round"/>
<path d="M143.528 148.812V169.292L171.893 152.908V132.428" stroke="#999999" stroke-miterlimit="1.5" stroke-linecap="round" stroke-linejoin="round"/>
<path d="M143.528 163.149L171.893 146.765" stroke="#999999" stroke-miterlimit="1.5" stroke-linecap="round" stroke-linejoin="round"/>
<path d="M143.528 157.004L171.919 140.62" stroke="#999999" stroke-miterlimit="1.5" stroke-linecap="round" stroke-linejoin="round"/>
<path d="M143.554 150.886L171.919 134.527" stroke="#999999" stroke-miterlimit="1.5" stroke-linecap="round" stroke-linejoin="round"/>
<path d="M175.45 162.125L169.255 158.541" stroke="#999999" stroke-miterlimit="1.5" stroke-linecap="round" stroke-linejoin="round"/>
<path d="M175.452 162.124V130.38" stroke="#222222" stroke-miterlimit="1.5" stroke-linecap="round" stroke-linejoin="round"/>
<path d="M175.503 162.099L186.101 155.98" stroke="#222222" stroke-miterlimit="1.5" stroke-linecap="round" stroke-linejoin="round"/>
<path d="M139.995 180.556V143.692" stroke="#222222" stroke-miterlimit="1.5" stroke-linecap="round" stroke-linejoin="round"/>
<path d="M158.606 137.036L143.63 145.689L140.071 143.641L175.45 123.212L179.009 125.26L158.606 137.036Z" stroke="#222222" stroke-miterlimit="1.5" stroke-linecap="round" stroke-linejoin="round"/>
<path d="M143.527 145.74L141.761 149.836L140.097 148.863" stroke="#222222" stroke-miterlimit="1.5" stroke-linecap="round" stroke-linejoin="round"/>
<path d="M141.812 149.811L177.242 129.356L179.136 125.337" stroke="#222222" stroke-miterlimit="1.5" stroke-linecap="round" stroke-linejoin="round"/>
<path d="M139.995 175.437L175.477 154.957" stroke="#222222" stroke-miterlimit="1.5" stroke-linecap="round" stroke-linejoin="round"/>
<path d="M125.812 186.854V159.078" stroke="#999999" stroke-miterlimit="1.5" stroke-linecap="round" stroke-linejoin="round"/>
<path d="M97.4209 203.213V175.437" stroke="#999999" stroke-miterlimit="1.5" stroke-linecap="round" stroke-linejoin="round"/>
<path d="M97.4209 184.78L125.811 168.396" stroke="#999999" stroke-miterlimit="1.5" stroke-linecap="round" stroke-linejoin="round"/>
<path d="M97.4209 190.925L125.811 174.515" stroke="#999999" stroke-miterlimit="1.5" stroke-linecap="round" stroke-linejoin="round"/>
<path d="M97.4209 197.068L125.811 180.659" stroke="#999999" stroke-miterlimit="1.5" stroke-linecap="round" stroke-linejoin="round"/>
<path d="M97.4209 203.213L125.811 186.829" stroke="#999999" stroke-miterlimit="1.5" stroke-linecap="round" stroke-linejoin="round"/>
<path d="M97.4209 178.663L125.811 162.279" stroke="#999999" stroke-miterlimit="1.5" stroke-linecap="round" stroke-linejoin="round"/>
<path d="M93.8115 170.419L93.9139 209.203" stroke="#222222" stroke-miterlimit="1.5" stroke-linecap="round" stroke-linejoin="round"/>
<path d="M95.7577 208.153L83.2393 215.373" stroke="#222222" stroke-miterlimit="1.5" stroke-linecap="round" stroke-linejoin="round"/>
<path d="M129.267 188.8L93.8623 209.229" stroke="#222222" stroke-miterlimit="1.5" stroke-linecap="round" stroke-linejoin="round"/>
<path d="M129.267 188.8V157.056" stroke="#222222" stroke-miterlimit="1.5" stroke-linecap="round" stroke-linejoin="round"/>
<path d="M112.499 163.66L97.4715 172.339L93.9131 170.291L129.343 149.836L132.902 151.884L112.499 163.66Z" stroke="#222222" stroke-miterlimit="1.5" stroke-linecap="round" stroke-linejoin="round"/>
<path d="M97.4724 172.339L95.706 176.435L94.042 175.462" stroke="#222222" stroke-miterlimit="1.5" stroke-linecap="round" stroke-linejoin="round"/>
<path d="M95.7568 176.409L131.136 155.981L133.03 151.961" stroke="#222222" stroke-miterlimit="1.5" stroke-linecap="round" stroke-linejoin="round"/>
<path d="M129.267 188.8L137.331 184.141" stroke="#222222" stroke-miterlimit="1.5" stroke-linecap="round" stroke-linejoin="round"/>
<path d="M269.913 107.597L277.004 111.693L284.095 107.597" stroke="#222222" stroke-miterlimit="1.5" stroke-linecap="round" stroke-linejoin="round"/>
<path d="M284.095 107.598V102.478" stroke="#222222" stroke-miterlimit="1.5" stroke-linecap="round" stroke-linejoin="round"/>
<path d="M277.005 106.573V111.693" stroke="#222222" stroke-miterlimit="1.5" stroke-linecap="round" stroke-linejoin="round"/>
<path d="M269.913 102.478V107.598" stroke="#222222" stroke-miterlimit="1.5" stroke-linecap="round" stroke-linejoin="round"/>
<path d="M277.004 98.3809L269.913 102.477L277.004 106.573L284.095 102.477L277.004 98.3809Z" stroke="#222222" stroke-miterlimit="1.5" stroke-linecap="round" stroke-linejoin="round"/>
<path d="M273.446 104.525L280.537 100.429" stroke="#222222" stroke-miterlimit="1.5" stroke-linecap="round" stroke-linejoin="round"/>
<path d="M137.333 187.212L144.424 191.308L151.515 187.212" stroke="#222222" stroke-miterlimit="1.5" stroke-linecap="round" stroke-linejoin="round"/>
<path d="M144.424 177.996L137.333 182.092L144.424 186.188L151.515 182.092L144.424 177.996Z" stroke="#222222" stroke-miterlimit="1.5" stroke-linecap="round" stroke-linejoin="round"/>
<path d="M140.866 180.044L147.957 184.14" stroke="#222222" stroke-miterlimit="1.5" stroke-linecap="round" stroke-linejoin="round"/>
<path d="M151.515 187.212V182.092" stroke="#222222" stroke-miterlimit="1.5" stroke-linecap="round" stroke-linejoin="round"/>
<path d="M144.425 186.188V191.308" stroke="#222222" stroke-miterlimit="1.5" stroke-linecap="round" stroke-linejoin="round"/>
<path d="M137.333 182.092V187.212" stroke="#222222" stroke-miterlimit="1.5" stroke-linecap="round" stroke-linejoin="round"/>
<path d="M221.581 135.501V103.757" stroke="#222222" stroke-miterlimit="1.5" stroke-linecap="round" stroke-linejoin="round"/>
<path d="M83.2412 162.125V215.373L95.6572 222.541" stroke="#222222" stroke-miterlimit="1.5" stroke-linecap="round" stroke-linejoin="round"/>
<path d="M95.6553 222.54L152.41 189.772" stroke="#222222" stroke-miterlimit="1.5" stroke-linecap="round" stroke-linejoin="round"/>
<path d="M235.763 141.644L290.752 109.9" stroke="#222222" stroke-miterlimit="1.5" stroke-linecap="round" stroke-linejoin="round"/>
<path d="M152.411 189.772L155.97 191.82L187.893 173.388" stroke="#222222" stroke-miterlimit="1.5" stroke-linecap="round" stroke-linejoin="round"/>
<path d="M187.866 173.389L239.297 143.693L235.738 141.645" stroke="#222222" stroke-miterlimit="1.5" stroke-linecap="round" stroke-linejoin="round"/>
<path d="M290.753 109.9L284.558 106.316" stroke="#222222" stroke-miterlimit="1.5" stroke-linecap="round" stroke-linejoin="round"/>
<path d="M152.411 189.772V197.964" stroke="#222222" stroke-miterlimit="1.5" stroke-linecap="round" stroke-linejoin="round"/>
<path d="M152.411 193.869L159.861 198.17L205.608 171.776" stroke="#222222" stroke-miterlimit="1.5" stroke-linecap="round" stroke-linejoin="round"/>
<path d="M152.411 191.821L157.736 194.893L204.84 167.706" stroke="#222222" stroke-miterlimit="1.5" stroke-linecap="round" stroke-linejoin="round"/>
<path d="M205.608 171.776L243.215 150.067L239.298 147.814" stroke="#222222" stroke-miterlimit="1.5" stroke-linecap="round" stroke-linejoin="round"/>
<path d="M203.841 168.269L241.089 146.765L237.53 144.717" stroke="#222222" stroke-miterlimit="1.5" stroke-linecap="round" stroke-linejoin="round"/>
<path d="M95.6564 230.732L47.7588 203.084" stroke="#222222" stroke-miterlimit="1.5" stroke-linecap="round" stroke-linejoin="round"/>
<path d="M95.6553 222.541V230.733" stroke="#222222" stroke-miterlimit="1.5" stroke-linecap="round" stroke-linejoin="round"/>
</svg>
