<svg width="487" height="256" viewBox="0 0 487 256" fill="none" xmlns="http://www.w3.org/2000/svg">
<path d="M53.333 143L55.333 142M53.333 143L51.333 142M53.333 143V151.5M53.333 205L55.333 204V192.101M53.333 205L51.333 204V142M53.333 205C53.333 205 53.333 196.272 53.333 191M55.333 142L53.333 141L51.333 142M55.333 142V149.5M184.333 106L186.333 105M184.333 106L182.333 105M184.333 106V168M184.333 168L186.333 167V152.5M184.333 168L182.333 167V154.5M186.333 105L184.333 104L182.333 105M186.333 105V113M186.333 105V115M182.333 105V113M182.333 105V115.146M151.333 87L153.333 86M151.333 87L149.333 86M151.333 87V97.5M86.333 162V224M86.333 162L88.333 161M86.333 162L84.333 161M86.333 224L88.333 223V208.5M86.333 224L84.333 223V208.5M88.333 161L86.333 160L84.333 161M88.333 161V169M84.333 161V169M88.333 169L182.333 115.146M88.333 169V170.5M84.333 169V170.5M84.333 169L55.333 152.629L53.333 151.5M53.333 151.5L55.333 150.5V149.5M53.333 151.5V153M149.333 96.5L55.333 149.5M149.333 96.5L151.333 97.5M149.333 96.5V86M153.333 86L151.333 85L149.333 86M153.333 86V94.3958M282.333 50L284.333 49M282.333 50L280.333 49M282.333 50V112M282.333 112L284.333 111V49M282.333 112L280.333 111V99M284.333 49L282.333 48L280.333 49M280.333 49V56.871M249.333 33L251.333 32M249.333 33L247.333 32M249.333 33V41.5M251.333 32L249.333 31L247.333 32M251.333 32V40.5M247.333 32V40.5M186.333 113L280.333 59.1458M186.333 113V115M251.333 40.5L280.333 56.871M251.333 40.5L249.333 41.5M182.333 113V115.146M182.333 113L153.333 96.629M151.333 97.5L153.333 96.629M247.333 40.5L153.333 94.3958M247.333 40.5L249.333 41.5M153.333 94.3958V96.629M182.333 115.146V117M280.333 56.871V59.1458M280.333 59.1458V61.5M84.333 207V171.242M84.333 207V208.5M84.333 207L55.333 190.629L53.333 189.5M53.333 189.5L55.333 188.5V187.5M53.333 189.5V153M53.333 189.5C53.333 189.5 53.333 190.219 53.333 191M182.333 150.5V153M182.333 150.5V117M182.333 150.5L153.333 133.505M88.333 207L182.333 153M88.333 207V170.5M88.333 207V208.5M182.333 153V154.5M186.333 151L280.333 97M186.333 151V115M186.333 151V152.5M280.333 97V94.5M280.333 97V99M251.333 78.0521L280.333 94.5M280.333 94.5V61.5M55.333 187.5L84.333 171.242M55.333 187.5V154.129M84.333 171.242V170.5M84.333 170.5L55.333 154.129M53.333 153L55.333 154.129M88.333 170.5L153.333 133.505M182.333 117L153.333 133.505M186.333 115L280.333 61.5M53.333 191C53.9815 191.356 54.6495 191.723 55.333 192.101M84.333 208.5C84.333 208.5 67.4092 198.771 55.333 192.101M88.333 208.5L182.333 154.5M186.333 152.5L280.333 99" stroke="#222222"/>
<path d="M80.333 154L65.333 145.384V134.616L72.8202 130.315L80.333 126L95.333 134.616V145.384L80.333 154Z" fill="#F0F0F0"/>
<path d="M80.333 154L65.333 145.384V134.616M80.333 154L95.333 145.384V134.616M80.333 154V143.231M65.333 134.616L80.333 126L95.333 134.616M65.333 134.616L80.333 143.231M80.333 143.231L95.333 134.616M72.8068 130.307L87.8068 138.923" stroke="#999999" stroke-miterlimit="1.5" stroke-linecap="round" stroke-linejoin="round"/>
<path d="M105.333 157L90.333 148.384V137.616L97.8202 133.315L105.333 129L120.333 137.616V148.384L105.333 157Z" fill="#F0F0F0"/>
<path d="M105.333 157L90.333 148.384V137.616M105.333 157L120.333 148.384V137.616M105.333 157V146.231M90.333 137.616L105.333 129L120.333 137.616M90.333 137.616L105.333 146.231M105.333 146.231L120.333 137.616M97.8068 133.307L112.807 141.923" stroke="#999999" stroke-miterlimit="1.5" stroke-linecap="round" stroke-linejoin="round"/>
<path d="M142.333 125L127.333 116.384V105.616L134.82 101.315L142.333 97L157.333 105.616V116.384L142.333 125Z" fill="#F0F0F0"/>
<path d="M142.333 125L127.333 116.384V105.616M142.333 125L157.333 116.384V105.616M142.333 125V114.231M127.333 105.616L142.333 97L157.333 105.616M127.333 105.616L142.333 114.231M142.333 114.231L157.333 105.616M134.807 101.307L149.807 109.923" stroke="#999999" stroke-miterlimit="1.5" stroke-linecap="round" stroke-linejoin="round"/>
<path d="M107.333 190L92.333 181.384V170.616L99.8202 166.315L107.333 162L122.333 170.616V181.384L107.333 190Z" fill="#F0F0F0"/>
<path d="M107.333 190L92.333 181.384V170.616M107.333 190L122.333 181.384V170.616M107.333 190V179.231M92.333 170.616L107.333 162L122.333 170.616M92.333 170.616L107.333 179.231M107.333 179.231L122.333 170.616M99.8068 166.307L114.807 174.923" stroke="#999999" stroke-miterlimit="1.5" stroke-linecap="round" stroke-linejoin="round"/>
<path d="M210.333 131L195.333 122.384V111.616L202.82 107.315L210.333 103L225.333 111.616V122.384L210.333 131Z" fill="#F0F0F0"/>
<path d="M210.333 131L195.333 122.384V111.616M210.333 131L225.333 122.384V111.616M210.333 131V120.231M195.333 111.616L210.333 103L225.333 111.616M195.333 111.616L210.333 120.231M210.333 120.231L225.333 111.616M202.807 107.307L217.807 115.923" stroke="#999999" stroke-miterlimit="1.5" stroke-linecap="round" stroke-linejoin="round"/>
<path d="M244.333 73L229.333 64.3845V53.6155L236.82 49.3151L244.333 45L259.333 53.6155V64.3845L244.333 73Z" fill="#F0F0F0"/>
<path d="M244.333 73L229.333 64.3845V53.6155M244.333 73L259.333 64.3845V53.6155M244.333 73V62.231M229.333 53.6155L244.333 45L259.333 53.6155M229.333 53.6155L244.333 62.231M244.333 62.231L259.333 53.6155M236.807 49.3074L251.807 57.9229" stroke="#999999" stroke-miterlimit="1.5" stroke-linecap="round" stroke-linejoin="round"/>
</svg>
