<svg width="487" height="256" viewBox="0 0 487 256" fill="none" xmlns="http://www.w3.org/2000/svg">
<path d="M104.613 124.484L43 160.053L111.916 199.838L173.529 164.269M104.613 124.484C103.08 134.912 109.225 145.646 123.048 153.626C136.871 161.606 155.465 165.154 173.529 164.269M104.613 124.484L162.688 90.9572M162.688 90.9572L223.241 55.9999L292.157 95.785L231.604 130.742M162.688 90.9572C180.753 90.0723 199.346 93.6198 213.169 101.6C226.992 109.58 233.137 120.314 231.604 130.742M173.529 164.269L231.604 130.742M176.665 149.147L186.559 143.435L179.548 139.388L189.638 133.562L183.283 129.893L173.192 135.718L168.081 132.768L172.34 130.309C176.883 127.687 179.788 125.228 181.055 122.933C182.365 120.613 182.474 118.482 181.382 116.54C180.29 114.598 178.477 112.896 175.944 111.434C171.663 108.962 166.902 107.827 161.66 108.029C156.461 108.206 150.848 110.034 144.82 113.514L129.881 122.139L150.062 133.789L144.82 136.815L152.945 141.506L158.187 138.48L163.298 141.43L158.056 144.457L164.412 148.126L169.654 145.1L176.665 149.147ZM163.232 126.186C165.111 125.102 166.53 124.055 167.491 123.046C168.409 122.013 168.78 121.016 168.605 120.058C168.43 119.1 167.644 118.217 166.246 117.41C164.237 116.25 162.118 115.758 159.891 115.935C157.619 116.086 155.129 116.944 152.421 118.507L147.9 121.117L159.956 128.077L163.232 126.186Z" stroke="#999999"/>
<path d="M245.519 125.674C246.376 125.179 247.024 124.702 247.463 124.241C247.881 123.769 248.051 123.315 247.971 122.878C247.891 122.44 247.532 122.038 246.895 121.669C245.978 121.14 245.011 120.916 243.994 120.996C242.958 121.065 241.822 121.456 240.586 122.17L238.523 123.361L244.024 126.537L245.519 125.674Z" fill="#F0F0F0"/>
<path fill-rule="evenodd" clip-rule="evenodd" d="M264.678 136.638C254.915 142.274 239.085 142.274 229.322 136.638C224.514 133.862 222.074 130.237 222.002 126.599C221.927 122.85 224.367 119.088 229.322 116.227C239.085 110.591 254.915 110.591 264.678 116.227C269.563 119.048 272.004 122.745 272 126.441C271.996 130.132 269.555 133.822 264.678 136.638ZM237.117 119.891L230.3 123.827L239.509 129.143L237.117 130.524L240.825 132.665L243.217 131.284L245.549 132.63L243.157 134.011L246.057 135.685L248.449 134.305L251.649 136.151L256.163 133.545L252.964 131.698L257.569 129.04L254.668 127.366L250.064 130.024L247.732 128.677L249.675 127.555C251.748 126.359 253.074 125.237 253.652 124.189C254.25 123.131 254.3 122.158 253.801 121.272C253.303 120.386 252.476 119.609 251.32 118.942C249.366 117.814 247.194 117.296 244.802 117.389C242.429 117.469 239.868 118.303 237.117 119.891Z" fill="#F0F0F0"/>
<path fill-rule="evenodd" clip-rule="evenodd" d="M230.3 123.827L237.117 119.891C239.868 118.303 242.429 117.469 244.802 117.389C247.194 117.296 249.366 117.814 251.32 118.942C252.476 119.609 253.303 120.386 253.801 121.272C254.3 122.158 254.25 123.131 253.652 124.189C253.074 125.237 251.748 126.359 249.675 127.555L247.732 128.677L250.064 130.024L254.668 127.366L257.569 129.04L252.964 131.698L256.163 133.545L251.649 136.151L248.449 134.305L246.057 135.685L243.157 134.011L245.549 132.63L243.217 131.284L240.825 132.665L237.117 130.524L239.509 129.143L230.3 123.827ZM247.463 124.241C247.024 124.702 246.376 125.179 245.519 125.674L244.024 126.537L238.523 123.361L240.586 122.17C241.822 121.456 242.958 121.065 243.994 120.996C245.011 120.916 245.978 121.14 246.895 121.669C247.532 122.038 247.891 122.44 247.971 122.878C248.051 123.315 247.881 123.769 247.463 124.241Z" fill="#F0F0F0"/>
<path d="M264.678 136.638C254.915 142.274 239.085 142.274 229.322 136.638C224.514 133.862 222.074 130.237 222.002 126.599L222 130.088C222.039 133.752 224.48 137.408 229.322 140.204C239.085 145.84 254.915 145.84 264.678 140.204C269.562 137.384 272.003 133.687 272 129.991V126.441C271.996 130.132 269.555 133.822 264.678 136.638Z" fill="#F0F0F0"/>
<path d="M272 126.441C272.004 122.745 269.563 119.048 264.678 116.227C254.915 110.591 239.085 110.591 229.322 116.227C224.367 119.088 221.927 122.85 222.002 126.599M272 126.441C271.996 130.132 269.555 133.822 264.678 136.638C254.915 142.274 239.085 142.274 229.322 136.638C224.514 133.862 222.074 130.237 222.002 126.599M272 126.441V129.991C272.003 133.687 269.562 137.384 264.678 140.204C254.915 145.84 239.085 145.84 229.322 140.204C224.48 137.408 222.039 133.752 222 130.088L222.002 126.599M251.649 136.151L256.163 133.545L252.964 131.698L257.569 129.04L254.668 127.366L250.064 130.024L247.732 128.677L249.675 127.555C251.748 126.359 253.074 125.237 253.652 124.189C254.25 123.131 254.3 122.158 253.801 121.272C253.303 120.386 252.476 119.609 251.32 118.942C249.366 117.814 247.194 117.296 244.802 117.389C242.429 117.469 239.868 118.303 237.117 119.891L230.3 123.827L239.509 129.143L237.117 130.524L240.825 132.665L243.217 131.284L245.549 132.63L243.157 134.011L246.057 135.685L248.449 134.305L251.649 136.151ZM245.519 125.674C246.376 125.179 247.024 124.702 247.463 124.241C247.881 123.769 248.051 123.315 247.971 122.878C247.891 122.44 247.532 122.038 246.895 121.669C245.978 121.14 245.011 120.916 243.994 120.996C242.958 121.065 241.822 121.456 240.586 122.17L238.523 123.361L244.024 126.537L245.519 125.674Z" stroke="#222222"/>
<path d="M84.5191 127.674C85.3763 127.179 86.0241 126.702 86.4626 126.241C86.8812 125.769 87.0506 125.315 86.9709 124.878C86.8912 124.44 86.5324 124.038 85.8945 123.669C84.9776 123.14 84.0108 122.916 82.9942 122.996C81.9577 123.065 80.8215 123.456 79.5857 124.17L77.5226 125.361L83.0241 128.537L84.5191 127.674Z" fill="#F0F0F0"/>
<path fill-rule="evenodd" clip-rule="evenodd" d="M103.678 138.638C93.9146 144.274 78.0854 144.274 68.3223 138.638C63.5142 135.862 61.0739 132.237 61.0017 128.599C60.9272 124.85 63.3674 121.088 68.3223 118.227C78.0854 112.591 93.9146 112.591 103.678 118.227C108.563 121.048 111.004 124.745 111 128.441C110.996 132.132 108.555 135.822 103.678 138.638ZM76.1173 121.891L69.3001 125.827L78.5093 131.143L76.1173 132.524L79.8249 134.665L82.2168 133.284L84.549 134.63L82.157 136.011L85.0573 137.685L87.4493 136.305L90.6486 138.151L95.1635 135.545L91.9642 133.698L96.5688 131.04L93.6685 129.366L89.0639 132.024L86.7317 130.677L88.6752 129.555C90.7483 128.359 92.0738 127.237 92.6519 126.189C93.2499 125.131 93.2997 124.158 92.8014 123.272C92.3031 122.386 91.4758 121.609 90.3197 120.942C88.3662 119.814 86.1935 119.296 83.8015 119.389C81.4295 119.469 78.8681 120.303 76.1173 121.891Z" fill="#F0F0F0"/>
<path fill-rule="evenodd" clip-rule="evenodd" d="M69.3001 125.827L76.1173 121.891C78.8681 120.303 81.4295 119.469 83.8015 119.389C86.1935 119.296 88.3662 119.814 90.3197 120.942C91.4758 121.609 92.3031 122.386 92.8014 123.272C93.2997 124.158 93.2499 125.131 92.6519 126.189C92.0738 127.237 90.7483 128.359 88.6752 129.555L86.7317 130.677L89.0639 132.024L93.6685 129.366L96.5688 131.04L91.9642 133.698L95.1635 135.545L90.6486 138.151L87.4493 136.305L85.0573 137.685L82.157 136.011L84.549 134.63L82.2168 133.284L79.8249 134.665L76.1173 132.524L78.5093 131.143L69.3001 125.827ZM86.4626 126.241C86.0241 126.702 85.3763 127.179 84.5191 127.674L83.0241 128.537L77.5226 125.361L79.5857 124.17C80.8215 123.456 81.9577 123.065 82.9942 122.996C84.0108 122.916 84.9776 123.14 85.8945 123.669C86.5324 124.038 86.8912 124.44 86.9709 124.878C87.0506 125.315 86.8812 125.769 86.4626 126.241Z" fill="#F0F0F0"/>
<path d="M103.678 138.638C93.9146 144.274 78.0854 144.274 68.3223 138.638C63.5142 135.862 61.0739 132.237 61.0017 128.599L61 132.088C61.0391 135.752 63.4802 139.408 68.3223 142.204C78.0854 147.84 93.9146 147.84 103.678 142.204C108.562 139.384 111.003 135.687 111 131.991V128.441C110.996 132.132 108.555 135.822 103.678 138.638Z" fill="#F0F0F0"/>
<path d="M111 128.441C111.004 124.745 108.563 121.048 103.678 118.227C93.9146 112.591 78.0854 112.591 68.3223 118.227C63.3674 121.088 60.9272 124.85 61.0017 128.599M111 128.441C110.996 132.132 108.555 135.822 103.678 138.638C93.9146 144.274 78.0854 144.274 68.3223 138.638C63.5142 135.862 61.0739 132.237 61.0017 128.599M111 128.441V131.991C111.003 135.687 108.562 139.384 103.678 142.204C93.9146 147.84 78.0854 147.84 68.3223 142.204C63.4802 139.408 61.0391 135.752 61 132.088L61.0017 128.599M90.6486 138.151L95.1635 135.545L91.9642 133.698L96.5688 131.04L93.6685 129.366L89.0639 132.024L86.7317 130.677L88.6752 129.555C90.7483 128.359 92.0738 127.237 92.6519 126.189C93.2499 125.131 93.2997 124.158 92.8014 123.272C92.3031 122.386 91.4758 121.609 90.3197 120.942C88.3662 119.814 86.1935 119.296 83.8015 119.389C81.4295 119.469 78.8681 120.303 76.1173 121.891L69.3001 125.827L78.5093 131.143L76.1173 132.524L79.8249 134.665L82.2168 133.284L84.549 134.63L82.157 136.011L85.0573 137.685L87.4493 136.305L90.6486 138.151ZM84.5191 127.674C85.3763 127.179 86.0241 126.702 86.4626 126.241C86.8812 125.769 87.0506 125.315 86.9709 124.878C86.8912 124.44 86.5324 124.038 85.8945 123.669C84.9776 123.14 84.0108 122.916 82.9942 122.996C81.9577 123.065 80.8215 123.456 79.5857 124.17L77.5226 125.361L83.0241 128.537L84.5191 127.674Z" stroke="#222222"/>
<path d="M162.519 87.6739C163.376 87.1791 164.024 86.7015 164.463 86.2412C164.881 85.7694 165.051 85.3149 164.971 84.8776C164.891 84.4403 164.532 84.0376 163.895 83.6693C162.978 83.14 162.011 82.9156 160.994 82.9961C159.958 83.0652 158.822 83.4564 157.586 84.1699L155.523 85.3609L161.024 88.537L162.519 87.6739Z" fill="#F0F0F0"/>
<path fill-rule="evenodd" clip-rule="evenodd" d="M181.678 98.6378C171.915 104.274 156.085 104.274 146.322 98.6378C141.514 95.8621 139.074 92.237 139.002 88.5991C138.927 84.8502 141.367 81.0877 146.322 78.2272C156.085 72.5909 171.915 72.5909 181.678 78.2272C186.563 81.0475 189.004 84.7447 189 88.4412C188.996 92.1319 186.555 95.8219 181.678 98.6378ZM154.117 81.8914L147.3 85.827L156.509 91.1434L154.117 92.5243L157.825 94.6647L160.217 93.2838L162.549 94.6302L160.157 96.0111L163.057 97.6854L165.449 96.3045L168.649 98.1515L173.163 95.545L169.964 93.6981L174.569 91.0398L171.668 89.3655L167.064 92.0237L164.732 90.6774L166.675 89.5554C168.748 88.3586 170.074 87.2366 170.652 86.1895C171.25 85.1308 171.3 84.1584 170.801 83.2723C170.303 82.3862 169.476 81.6095 168.32 80.9421C166.366 79.8143 164.194 79.2965 161.802 79.3885C159.429 79.4691 156.868 80.3034 154.117 81.8914Z" fill="#F0F0F0"/>
<path fill-rule="evenodd" clip-rule="evenodd" d="M147.3 85.827L154.117 81.8914C156.868 80.3034 159.429 79.4691 161.802 79.3885C164.194 79.2965 166.366 79.8143 168.32 80.9421C169.476 81.6095 170.303 82.3862 170.801 83.2723C171.3 84.1584 171.25 85.1308 170.652 86.1895C170.074 87.2366 168.748 88.3586 166.675 89.5554L164.732 90.6774L167.064 92.0237L171.668 89.3655L174.569 91.0398L169.964 93.6981L173.163 95.545L168.649 98.1515L165.449 96.3045L163.057 97.6854L160.157 96.0111L162.549 94.6302L160.217 93.2838L157.825 94.6647L154.117 92.5243L156.509 91.1434L147.3 85.827ZM164.463 86.2412C164.024 86.7015 163.376 87.1791 162.519 87.6739L161.024 88.537L155.523 85.3609L157.586 84.1699C158.822 83.4564 159.958 83.0652 160.994 82.9961C162.011 82.9156 162.978 83.14 163.895 83.6693C164.532 84.0376 164.891 84.4403 164.971 84.8776C165.051 85.3149 164.881 85.7694 164.463 86.2412Z" fill="#F0F0F0"/>
<path d="M181.678 98.6378C171.915 104.274 156.085 104.274 146.322 98.6378C141.514 95.8621 139.074 92.237 139.002 88.5991L139 92.0879C139.039 95.7516 141.48 99.4084 146.322 102.204C156.085 107.84 171.915 107.84 181.678 102.204C186.562 99.3838 189.003 95.6872 189 91.9912V88.4412C188.996 92.1319 186.555 95.8219 181.678 98.6378Z" fill="#F0F0F0"/>
<path d="M189 88.4412C189.004 84.7447 186.563 81.0475 181.678 78.2272C171.915 72.5909 156.085 72.5909 146.322 78.2272C141.367 81.0877 138.927 84.8502 139.002 88.5991M189 88.4412C188.996 92.1319 186.555 95.8219 181.678 98.6378C171.915 104.274 156.085 104.274 146.322 98.6378C141.514 95.8621 139.074 92.237 139.002 88.5991M189 88.4412V91.9912C189.003 95.6872 186.562 99.3838 181.678 102.204C171.915 107.84 156.085 107.84 146.322 102.204C141.48 99.4084 139.039 95.7516 139 92.0879L139.002 88.5991M168.649 98.1515L173.163 95.545L169.964 93.6981L174.569 91.0398L171.668 89.3655L167.064 92.0237L164.732 90.6774L166.675 89.5554C168.748 88.3586 170.074 87.2366 170.652 86.1895C171.25 85.1308 171.3 84.1584 170.801 83.2723C170.303 82.3862 169.476 81.6095 168.32 80.9421C166.366 79.8143 164.194 79.2965 161.802 79.3885C159.429 79.4691 156.868 80.3034 154.117 81.8914L147.3 85.827L156.509 91.1434L154.117 92.5243L157.825 94.6647L160.217 93.2838L162.549 94.6302L160.157 96.0111L163.057 97.6854L165.449 96.3045L168.649 98.1515ZM162.519 87.6739C163.376 87.1791 164.024 86.7015 164.463 86.2412C164.881 85.7694 165.051 85.3149 164.971 84.8776C164.891 84.4403 164.532 84.0376 163.895 83.6693C162.978 83.14 162.011 82.9156 160.994 82.9961C159.958 83.0652 158.822 83.4564 157.586 84.1699L155.523 85.3609L161.024 88.537L162.519 87.6739Z" stroke="#222222"/>
<path d="M134.519 152.674C135.376 152.179 136.024 151.702 136.463 151.241C136.881 150.769 137.051 150.315 136.971 149.878C136.891 149.44 136.532 149.038 135.895 148.669C134.978 148.14 134.011 147.916 132.994 147.996C131.958 148.065 130.822 148.456 129.586 149.17L127.523 150.361L133.024 153.537L134.519 152.674Z" fill="#F0F0F0"/>
<path fill-rule="evenodd" clip-rule="evenodd" d="M153.678 163.638C143.915 169.274 128.085 169.274 118.322 163.638C113.514 160.862 111.074 157.237 111.002 153.599C110.927 149.85 113.367 146.088 118.322 143.227C128.085 137.591 143.915 137.591 153.678 143.227C158.563 146.048 161.004 149.745 161 153.441C160.996 157.132 158.555 160.822 153.678 163.638ZM126.117 146.891L119.3 150.827L128.509 156.143L126.117 157.524L129.825 159.665L132.217 158.284L134.549 159.63L132.157 161.011L135.057 162.685L137.449 161.305L140.649 163.151L145.163 160.545L141.964 158.698L146.569 156.04L143.668 154.366L139.064 157.024L136.732 155.677L138.675 154.555C140.748 153.359 142.074 152.237 142.652 151.189C143.25 150.131 143.3 149.158 142.801 148.272C142.303 147.386 141.476 146.609 140.32 145.942C138.366 144.814 136.194 144.296 133.802 144.389C131.429 144.469 128.868 145.303 126.117 146.891Z" fill="#F0F0F0"/>
<path fill-rule="evenodd" clip-rule="evenodd" d="M119.3 150.827L126.117 146.891C128.868 145.303 131.429 144.469 133.802 144.389C136.194 144.296 138.366 144.814 140.32 145.942C141.476 146.609 142.303 147.386 142.801 148.272C143.3 149.158 143.25 150.131 142.652 151.189C142.074 152.237 140.748 153.359 138.675 154.555L136.732 155.677L139.064 157.024L143.668 154.366L146.569 156.04L141.964 158.698L145.163 160.545L140.649 163.151L137.449 161.305L135.057 162.685L132.157 161.011L134.549 159.63L132.217 158.284L129.825 159.665L126.117 157.524L128.509 156.143L119.3 150.827ZM136.463 151.241C136.024 151.702 135.376 152.179 134.519 152.674L133.024 153.537L127.523 150.361L129.586 149.17C130.822 148.456 131.958 148.065 132.994 147.996C134.011 147.916 134.978 148.14 135.895 148.669C136.532 149.038 136.891 149.44 136.971 149.878C137.051 150.315 136.881 150.769 136.463 151.241Z" fill="#F0F0F0"/>
<path d="M153.678 163.638C143.915 169.274 128.085 169.274 118.322 163.638C113.514 160.862 111.074 157.237 111.002 153.599L111 157.088C111.039 160.752 113.48 164.408 118.322 167.204C128.085 172.84 143.915 172.84 153.678 167.204C158.562 164.384 161.003 160.687 161 156.991V153.441C160.996 157.132 158.555 160.822 153.678 163.638Z" fill="#F0F0F0"/>
<path d="M161 153.441C161.004 149.745 158.563 146.048 153.678 143.227C143.915 137.591 128.085 137.591 118.322 143.227C113.367 146.088 110.927 149.85 111.002 153.599M161 153.441C160.996 157.132 158.555 160.822 153.678 163.638C143.915 169.274 128.085 169.274 118.322 163.638C113.514 160.862 111.074 157.237 111.002 153.599M161 153.441V156.991C161.003 160.687 158.562 164.384 153.678 167.204C143.915 172.84 128.085 172.84 118.322 167.204C113.48 164.408 111.039 160.752 111 157.088L111.002 153.599M140.649 163.151L145.163 160.545L141.964 158.698L146.569 156.04L143.668 154.366L139.064 157.024L136.732 155.677L138.675 154.555C140.748 153.359 142.074 152.237 142.652 151.189C143.25 150.131 143.3 149.158 142.801 148.272C142.303 147.386 141.476 146.609 140.32 145.942C138.366 144.814 136.194 144.296 133.802 144.389C131.429 144.469 128.868 145.303 126.117 146.891L119.3 150.827L128.509 156.143L126.117 157.524L129.825 159.665L132.217 158.284L134.549 159.63L132.157 161.011L135.057 162.685L137.449 161.305L140.649 163.151ZM134.519 152.674C135.376 152.179 136.024 151.702 136.463 151.241C136.881 150.769 137.051 150.315 136.971 149.878C136.891 149.44 136.532 149.038 135.895 148.669C134.978 148.14 134.011 147.916 132.994 147.996C131.958 148.065 130.822 148.456 129.586 149.17L127.523 150.361L133.024 153.537L134.519 152.674Z" stroke="#222222"/>
<path d="M266.573 109.295C267.529 109.039 268.279 108.745 268.821 108.414C269.348 108.067 269.629 107.672 269.665 107.229C269.701 106.786 269.459 106.304 268.938 105.783C268.19 105.034 267.314 104.567 266.311 104.382C265.292 104.181 264.093 104.264 262.715 104.634L260.414 105.25L264.906 109.742L266.573 109.295Z" fill="#F0F0F0"/>
<path fill-rule="evenodd" clip-rule="evenodd" d="M282.241 124.844C271.352 127.761 256.062 123.665 248.091 115.693C244.165 111.768 242.746 107.635 243.618 104.102C244.516 100.462 247.847 97.4589 253.373 95.9783C264.262 93.061 279.552 97.1579 287.524 105.129C291.513 109.118 292.914 113.321 291.953 116.89C290.994 120.454 287.682 123.387 282.241 124.844ZM259.954 101.535L252.351 103.572L259.87 111.091L257.202 111.806L260.23 114.833L262.897 114.118L264.802 116.022L262.134 116.737L264.502 119.105L267.17 118.39L269.782 121.002L274.818 119.653L272.205 117.041L277.341 115.665L274.973 113.297L269.837 114.673L267.933 112.769L270.101 112.188C272.413 111.569 273.984 110.828 274.813 109.966C275.665 109.098 275.964 108.172 275.712 107.187C275.46 106.202 274.862 105.238 273.918 104.294C272.323 102.699 270.359 101.637 268.024 101.106C265.712 100.57 263.022 100.713 259.954 101.535Z" fill="#F0F0F0"/>
<path fill-rule="evenodd" clip-rule="evenodd" d="M252.351 103.572L259.954 101.535C263.022 100.713 265.712 100.57 268.024 101.106C270.359 101.637 272.323 102.699 273.918 104.294C274.862 105.238 275.46 106.202 275.712 107.187C275.964 108.172 275.665 109.098 274.813 109.966C273.984 110.828 272.413 111.569 270.101 112.188L267.933 112.769L269.837 114.673L274.973 113.297L277.341 115.665L272.205 117.041L274.818 119.653L269.782 121.002L267.17 118.39L264.502 119.105L262.134 116.737L264.802 116.022L262.897 114.118L260.23 114.833L257.202 111.806L259.87 111.091L252.351 103.572ZM268.821 108.414C268.279 108.745 267.529 109.039 266.573 109.295L264.906 109.742L260.414 105.25L262.715 104.634C264.093 104.264 265.292 104.181 266.311 104.382C267.314 104.567 268.19 105.034 268.938 105.783C269.459 106.304 269.701 106.786 269.665 107.229C269.629 107.672 269.348 108.067 268.821 108.414Z" fill="#F0F0F0"/>
<path d="M282.241 124.844C271.352 127.761 256.062 123.665 248.091 115.693C244.165 111.768 242.746 107.635 243.618 104.102L242.713 107.472C241.803 111.021 243.214 115.185 247.168 119.138C255.139 127.109 270.429 131.206 281.318 128.289C286.766 126.829 290.081 123.89 291.034 120.319L291.953 116.89C290.994 120.454 287.682 123.387 282.241 124.844Z" fill="#F0F0F0"/>
<path d="M291.953 116.89C292.914 113.321 291.513 109.118 287.524 105.129C279.552 97.1579 264.262 93.061 253.373 95.9783C247.847 97.4589 244.516 100.462 243.618 104.102M291.953 116.89C290.994 120.454 287.682 123.387 282.241 124.844C271.352 127.761 256.062 123.665 248.091 115.693C244.165 111.768 242.746 107.635 243.618 104.102M291.953 116.89L291.034 120.319C290.081 123.89 286.766 126.829 281.318 128.289C270.429 131.206 255.139 127.109 247.168 119.138C243.214 115.185 241.803 111.021 242.713 107.472L243.618 104.102M269.782 121.002L274.818 119.653L272.205 117.041L277.341 115.665L274.973 113.297L269.837 114.673L267.933 112.769L270.101 112.188C272.413 111.569 273.984 110.828 274.813 109.966C275.665 109.098 275.964 108.172 275.712 107.187C275.46 106.202 274.862 105.238 273.918 104.294C272.323 102.699 270.359 101.637 268.024 101.106C265.712 100.57 263.022 100.713 259.954 101.535L252.351 103.572L259.87 111.091L257.202 111.806L260.23 114.833L262.897 114.118L264.802 116.022L262.134 116.737L264.502 119.105L267.17 118.39L269.782 121.002ZM266.573 109.295C267.529 109.039 268.279 108.745 268.821 108.414C269.348 108.067 269.629 107.672 269.665 107.229C269.701 106.786 269.459 106.304 268.938 105.783C268.19 105.034 267.314 104.567 266.311 104.382C265.292 104.181 264.093 104.264 262.715 104.634L260.414 105.25L264.906 109.742L266.573 109.295Z" stroke="#222222"/>
</svg>
