<svg width="150" height="12" viewBox="0 0 150 12" fill="none" xmlns="http://www.w3.org/2000/svg">
<path d="M21.5256 9.24725V11.7692H11.4961V0.230769H21.2956V2.75275H15.0338V4.68132H20.5173V7.15385H15.0338V9.24725H21.5256Z" fill="#1771F1"/>
<path d="M31.3044 12C30.0072 12 28.8398 11.7473 27.802 11.2418C26.7761 10.7253 25.9683 10.011 25.3787 9.0989C24.789 8.18681 24.4942 7.15385 24.4942 6C24.4942 4.84615 24.789 3.81319 25.3787 2.9011C25.9683 1.98901 26.7761 1.28022 27.802 0.774725C28.8398 0.258242 30.0072 0 31.3044 0C32.4365 0 33.4565 0.186813 34.3645 0.56044C35.2725 0.934066 36.0273 1.47253 36.6287 2.17582L34.3999 4.05494C33.598 3.15385 32.6251 2.7033 31.4813 2.7033C30.8091 2.7033 30.2077 2.84066 29.677 3.11538C29.1581 3.39011 28.7513 3.78022 28.4565 4.28571C28.1735 4.78022 28.032 5.35165 28.032 6C28.032 6.64835 28.1735 7.22528 28.4565 7.73077C28.7513 8.22528 29.1581 8.60989 29.677 8.88461C30.2077 9.15934 30.8091 9.2967 31.4813 9.2967C32.6251 9.2967 33.598 8.84615 34.3999 7.94506L36.6287 9.82418C36.0273 10.5275 35.2725 11.0659 34.3645 11.4396C33.4565 11.8132 32.4365 12 31.3044 12Z" fill="#1771F1"/>
<path d="M49.8525 2.81868H46.0671V11.7692H42.6178V2.81868H38.8147V0.230769H49.8525V2.81868Z" fill="#1771F1"/>
<path d="M59.5507 3.90659C61.0719 3.90659 62.2453 4.22528 63.0708 4.86264C63.8962 5.48901 64.309 6.42308 64.309 7.66484C64.309 8.99451 63.8491 10.011 62.9292 10.7143C62.0094 11.4176 60.73 11.7692 59.0908 11.7692H53.2359V0.230769H56.6851V3.90659H59.5507ZM58.8609 9.42857C59.4505 9.42857 59.9163 9.28022 60.2583 8.98352C60.612 8.68681 60.7889 8.26923 60.7889 7.73077C60.7889 6.73077 60.1462 6.23077 58.8609 6.23077H56.6851V9.42857H58.8609Z" fill="#1771F1"/>
<path d="M74.7559 0.230769H78.2052V7.00549L83.3173 0.230769H86.6073V11.7692H83.1581V5.01099L78.0637 11.7692H74.7559V0.230769Z" fill="#1771F1"/>
<path d="M104.185 9.18132V11.7692H90.0338V9.18132H90.3991C91.1302 9.17033 91.6432 8.7033 91.938 7.78022C92.2446 6.85714 92.4333 5.52747 92.504 3.79121L92.6455 0.230769H102.593V9.18132H104.185ZM95.5642 4.07143C95.517 5.3022 95.4109 6.34615 95.2458 7.2033C95.0807 8.06044 94.8271 8.71978 94.4852 9.18132H99.2319V2.81868H95.6172L95.5642 4.07143Z" fill="#1771F1"/>
<path d="M117.84 9.24725V11.7692H107.899V0.230769H117.611V2.75275H111.26V4.68132H116.868V7.15385H111.26V9.24725H117.84Z" fill="#1771F1"/>
<path d="M131.956 0.230769V11.7692H128.418V8.8022H126.561L124.496 11.7692H120.817L123.329 8.39011C122.503 8.04945 121.872 7.56044 121.436 6.92308C121 6.27473 120.782 5.5055 120.782 4.61539C120.782 3.71429 121.006 2.93407 121.454 2.27473C121.902 1.61538 122.545 1.10989 123.382 0.758242C124.219 0.406593 125.198 0.230769 126.318 0.230769H131.956ZM126.389 2.8022C125.009 2.8022 124.319 3.39011 124.319 4.56593C124.319 5.14835 124.49 5.59341 124.832 5.9011C125.186 6.1978 125.69 6.32967 126.351 6.32967H128.418V2.78572L126.389 2.8022Z" fill="#1771F1"/>
<path d="M0 4.61523H5.30661V7.08776H0V4.61523Z" fill="#1771F1"/>
<path d="M0 0.164062H5.30661V2.63659H0V0.164062Z" fill="#1771F1"/>
<path d="M0 9.23047H5.30661V11.703H0V9.23047Z" fill="#1771F1"/>
<path d="M138.148 4.61523H142.747V7.08776H138.148V4.61523Z" fill="#1771F1"/>
<path d="M138.148 0.164062H143.809L150 5.93329L143.809 11.7025H138.148V9.23H142.747L146.285 5.93329L142.747 2.63659H138.148V0.164062Z" fill="#1771F1"/>
</svg>
